<?xml version="1.0" encoding="utf-8"?>
<!-- Generator: Adobe Illustrator 24.0.1, SVG Export Plug-In . SVG Version: 6.00 Build 0)  -->
<svg version="1.1"
	 id="Layer_1" xmlns:cc="http://creativecommons.org/ns#" xmlns:dc="http://purl.org/dc/elements/1.1/" xmlns:rdf="http://www.w3.org/1999/02/22-rdf-syntax-ns#"
	 xmlns="http://www.w3.org/2000/svg" xmlns:xlink="http://www.w3.org/1999/xlink" x="0px" y="0px" viewBox="0 0 26 26"
	 style="enable-background:new 0 0 26 26;" xml:space="preserve">
<style type="text/css">
	.st0{stroke:#000000;stroke-linecap:square;stroke-linejoin:round;}
	.st1{stroke:#FFFFFF;stroke-width:0.75;stroke-linejoin:round;}
	.st2{stroke:#000000;stroke-linejoin:round;}
	.st3{stroke:#FFFFFF;stroke-width:0.5;stroke-linecap:square;stroke-linejoin:round;}
	.st4{fill:none;stroke:#000000;}
</style>
<path class="st0" d="M17,18.5c0,2.2-1.8,4-4,4s-4-1.8-4-4s1.8-4,4-4S17,16.3,17,18.5z"/>
<path class="st1" d="M11.3,17l-2.6-0.2"/>
<path class="st2" d="M8.7,16.8L4,16.5v-6l14-1c6-0.4,6,8.4,0,8L11.3,17"/>
<path class="st0" d="M4,16.5c-0.8,0-1.5-1.3-1.5-3s0.7-3,1.5-3"/>
<path class="st3" d="M4,10.5c0.8,0,1.5,1.3,1.5,3s-0.7,3-1.5,3"/>
<path d="M19,18.5c0,2.2-1.8,4-4,4s-4-1.8-4-4s1.8-4,4-4S19,16.3,19,18.5z"/>
<path class="st3" d="M14,22.4c-1.7-0.4-3-2-3-3.9c0-0.4,0.1-0.8,0.2-1.1"/>
<path class="st0" d="M18.9,17.7C19,18,19,18.2,19,18.5c0,2.2-1.8,4-4,4c-0.3,0-0.7,0-1-0.1"/>
<path class="st3" d="M11.2,17.4c0.5-1.6,2-2.9,3.8-2.9c1.9,0,3.5,1.4,3.9,3.2"/>
<path class="st4" d="M21,13.5c6,2-1,4,1,7"/>
</svg>
