<?xml version="1.0" encoding="utf-8"?>
<!-- Generator: Adobe Illustrator 24.0.1, SVG Export Plug-In . SVG Version: 6.00 Build 0)  -->
<svg version="1.1"
	 id="Layer_1" xmlns:cc="http://creativecommons.org/ns#" xmlns:dc="http://purl.org/dc/elements/1.1/" xmlns:rdf="http://www.w3.org/1999/02/22-rdf-syntax-ns#"
	 xmlns="http://www.w3.org/2000/svg" xmlns:xlink="http://www.w3.org/1999/xlink" x="0px" y="0px" viewBox="0 0 26 26"
	 style="enable-background:new 0 0 26 26;" xml:space="preserve">
<style type="text/css">
	.st0{fill:#DC0000;}
	.st1{stroke:#000000;stroke-linecap:round;}
	.st2{fill:none;stroke:#FFFFFF;stroke-width:0.25;stroke-miterlimit:10;}
	.st3{fill:none;stroke:#FFFFFF;stroke-width:0.25;stroke-linecap:round;}
	.st4{fill:none;stroke:#FFFFFF;stroke-width:0.5;stroke-linecap:round;}
	.st5{fill-rule:evenodd;clip-rule:evenodd;fill:#FFFFFF;stroke:#000000;stroke-width:0.4;}
	.st6{fill:#FFFFFF;stroke:#FFFFFF;stroke-width:0.25;stroke-miterlimit:10;}
</style>
<g>
	<path class="st0" d="M12.7,18C12.7,18,12.7,18,12.7,18C12.7,18,12.7,18,12.7,18z"/>
	<g transform="matrix(-1,0,0,1,26,0)">
		<path id="path5042_4_" class="st1" d="M9.5,14.5c0.5-0.7,1-2,1-3c-1-1.6-1.6-3.1,0-5c-0.9-0.2-2-1.1-3-1c-1.9,0.4-3.6,3.3-5,5
			C4.2,12,6.9,13.9,9.5,14.5z"/>
	</g>
	<g transform="matrix(-1,0,0,1,26,0)">
		<path id="path5042_3_" class="st2" d="M9.3,14.2c0.5-0.7,0.9-1.8,0.9-2.8c-0.9-1.5-1.5-2.9,0-4.6c-0.8-0.2-1.9-1-2.8-0.9
			c-1.8,0.3-3.3,3-4.6,4.6C4.4,11.9,6.9,13.6,9.3,14.2z"/>
	</g>
	<g transform="matrix(-1,0,0,1,26,0)">
		<path id="path5042_2_" class="st1" d="M23.5,10.5c-1.4-1.7-3.1-4.6-5-5c-1-0.1-2.1,0.8-3,1c1.6,1.9,1,3.4,0,5c0,1,0.5,2.3,1,3
			C19.1,13.9,21.8,12,23.5,10.5z"/>
	</g>
	<g transform="matrix(-1,0,0,1,26,0)">
		<path id="path5042_1_" class="st2" d="M23.2,10.5c-1.3-1.6-2.8-4.3-4.6-4.6c-0.9-0.1-1.9,0.7-2.8,0.9c1.5,1.7,0.9,3.1,0,4.6
			c0,0.9,0.5,2.1,0.9,2.8C19.1,13.6,21.6,11.9,23.2,10.5z"/>
	</g>
	<path class="st3" d="M17.1,6.2c0.4,0.5,0.5,1,0.6,1.3c0.5,1.8-0.4,3.3-0.7,3.9c-0.3,0.6-0.7,1-0.9,1.2"/>
	<path class="st1" d="M9,7.5c-0.7,2.1,0.8,4.3,2.5,6c0.2,2,0.4,5.3,0,8h3c-0.4-2.7-0.2-6,0-8c1.7-1.7,3.2-3.9,2.5-6
		c-0.5-1.5-1.7-2-4-2C10.7,5.5,9.5,6,9,7.5z"/>
	<path class="st4" d="M14,17.3c-0.2,0.1-0.5,0.3-1,0.3s-0.8-0.2-1-0.3 M14,15.8c-0.2,0.1-0.5,0.3-1,0.3s-0.8-0.2-1-0.3 M14,14.3
		c-0.2,0.1-0.5,0.3-1,0.3s-0.8-0.2-1-0.3"/>
	<path class="st3" d="M9,6.2c-0.4,0.5-0.5,1-0.6,1.3c-0.5,1.8,0.4,3.3,0.7,3.9c0.3,0.6,0.7,1,0.9,1.2"/>
	<path id="path4554" class="st5" d="M11,11c-2,2-3,5-2,7c0.5,0.9,1.1,0.9,2,1c-0.2-0.4-1-1-1-2c0-2,1.2-3.6,1.5-4.5L11,11z"/>
	<path id="path4554_2_" class="st5" d="M14.5,12.5C14.8,13.4,16,15,16,17c0,1-0.8,1.6-1,2c0.9-0.1,1.5-0.1,2-1c1-2,0-5-2-7
		L14.5,12.5z"/>
	<path id="path4556" class="st6" d="M12,10.5c0,0.3-0.2,0.5-0.5,0.5S11,10.8,11,10.5s0.2-0.5,0.5-0.5S12,10.2,12,10.5z"/>
	<path id="path4556_2_" class="st6" d="M15,10.5c0,0.3-0.2,0.5-0.5,0.5S14,10.8,14,10.5s0.2-0.5,0.5-0.5S15,10.2,15,10.5z"/>
</g>
</svg>
