<!-- Created with Inkscape (http://www.inkscape.org/) -->
<svg xmlns:rdf="http://www.w3.org/1999/02/22-rdf-syntax-ns#" xmlns="http://www.w3.org/2000/svg" height="26" width="26" version="1.0" xmlns:cc="http://creativecommons.org/ns#" xmlns:dc="http://purl.org/dc/elements/1.1/">
 <metadata>
  <rdf:RDF>
   <cc:Work rdf:about="">
    <dc:format>image/svg+xml</dc:format>
    <dc:type rdf:resource="http://purl.org/dc/dcmitype/StillImage"/>
    <dc:title/>
   </cc:Work>
  </rdf:RDF>
 </metadata>
 <path stroke-linejoin="round" d="m17,18a4,4,0,1,1,-8,0,4,4,0,1,1,8,0z" transform="translate(0,0.5)" stroke-dashoffset="0" stroke="#000" stroke-linecap="square" stroke-miterlimit="4" stroke-dasharray="none" stroke-width="1" fill="#FFF"/>
 <path stroke-linejoin="round" style="enable-background:accumulate;color:#000000;" d="m4,16.5,0-6,14-1c5.9951-0.42822,5.9951,8.4282,0,8z" stroke-dashoffset="0" stroke="#000" stroke-linecap="butt" stroke-miterlimit="4" stroke-dasharray="none" stroke-width="1" fill="#FFF"/>
 <path stroke-linejoin="round" d="m4,14a1.5,3,0,1,1,-3,0,1.5,3,0,1,1,3,0z" transform="translate(1.5,-0.5)" stroke-dashoffset="0" stroke="#000" stroke-linecap="square" stroke-miterlimit="4" stroke-dasharray="none" stroke-width="1" fill="#FFF"/>
 <path stroke-linejoin="round" d="m17,18a4,4,0,1,1,-8,0,4,4,0,1,1,8,0z" transform="translate(2,0.5)" stroke-dashoffset="0" stroke="#000" stroke-linecap="square" stroke-miterlimit="4" stroke-dasharray="none" stroke-width="1" fill="#FFF"/>
 <path stroke-linejoin="miter" style="enable-background:accumulate;color:#000000;" d="m21,13.5c6,2-1,4,1,7" stroke-dashoffset="0" stroke="#000" stroke-linecap="butt" stroke-miterlimit="4" stroke-dasharray="none" stroke-width="1" fill="none"/>
</svg>
