<!-- Created with Inkscape (http://www.inkscape.org/) -->
<svg xmlns:rdf="http://www.w3.org/1999/02/22-rdf-syntax-ns#" xmlns="http://www.w3.org/2000/svg" height="26" width="26" version="1.0" xmlns:cc="http://creativecommons.org/ns#" xmlns:xlink="http://www.w3.org/1999/xlink" xmlns:dc="http://purl.org/dc/elements/1.1/">
 <metadata>
  <rdf:RDF>
   <cc:Work rdf:about="">
    <dc:format>image/svg+xml</dc:format>
    <dc:type rdf:resource="http://purl.org/dc/dcmitype/StillImage"/>
    <dc:title/>
   </cc:Work>
  </rdf:RDF>
 </metadata>
 <path id="path5042" stroke-linejoin="miter" d="m2.5,10.5c1.4409-1.7465,3.0675-4.6454,5-5,0.95215-0.13393,2.0941,0.75455,3,1-1.5859,1.8649-1.0035,3.3785,0,5,0,1-0.49596,2.2722-1,3-2.5874-0.6334-5.2913-2.4854-7-4z" fill-rule="nonzero" stroke-dashoffset="0" stroke="#000" stroke-linecap="round" stroke-miterlimit="4" stroke-dasharray="none" stroke-width="1" fill="#FFF"/>
 <path d="m12.714,17.985c0.0086-0.0042,0.02981,0.004,0.03649,0.0083-0.01884,0-0.04095-0.0062-0.03649-0.0083z" fill-rule="nonzero" fill="#dc0000"/>
 <path id="path4554" stroke-linejoin="miter" d="m11,11c-2,2-3,5-2,7,0.45517,0.91035,1.1082,0.93322,2,1-0.16058-0.4414-1-1-1-2,0-2,1.155-3.6204,1.5-4.5003z" fill-rule="evenodd" stroke="#000" stroke-linecap="butt" stroke-miterlimit="4" stroke-dasharray="none" stroke-width="0.40000001" fill="#FFF"/>
 <use xlink:href="#path5042" transform="matrix(-1,0,0,1,26,0)" height="26" width="26" y="0" x="0"/>
 <use xlink:href="#path4554" transform="matrix(-1,0,0,1,26,0)" height="26" width="26" y="0" x="0"/>
 <path stroke-linejoin="miter" d="m9.0001,7.5c-0.70711,2.1213,0.79367,4.3316,2.5,6,0.1923,2.021,0.39389,5.2635,0,8h3c-0.39389-2.7365-0.1923-5.979,0-8,1.7063-1.6684,3.2071-3.8787,2.5-6-0.5-1.5-1.702-2.001-4-2-2.298,0.0009956-3.5,0.5-4,2z" fill-rule="nonzero" stroke-dashoffset="0" stroke="#000" stroke-linecap="round" stroke-miterlimit="4" stroke-dasharray="none" stroke-width="1" fill="#FFF"/>
 <path id="path4556" d="m12,10.5a0.5,0.5,0,0,1,-1,0,0.5,0.5,0,1,1,1,0z" fill-rule="nonzero" fill="#000"/>
 <path stroke-linejoin="miter" d="m14,17.25c-0.15596,0.07749-0.53506,0.25-1,0.25s-0.84404-0.17251-1-0.25m2-1.5c-0.15596,0.07749-0.53506,0.25-1,0.25s-0.84404-0.17251-1-0.25m2-1.5c-0.15596,0.07749-0.53506,0.25-1,0.25s-0.84404-0.17251-1-0.25" fill-rule="nonzero" stroke-dashoffset="0" stroke="#000" stroke-linecap="round" stroke-miterlimit="4" stroke-dasharray="none" stroke-width="0.5" fill="#dc0000"/>
 <use xlink:href="#path4556" transform="matrix(-1,0,0,1,26,0)" height="26" width="26" y="0" x="0"/>
</svg>
